# xmcd
#
# Track frame offsets:
#	225
#	16847
#	29224
#	47303
#	69041
#	82449
#	96957
#	115667
#	138640
#	152670
#	171385
#
# Disc length: 2519 seconds
#
# Revision: 1
# Processed by: cddbd v1.5.1PL0 Copyright (c) Steve Scherf et al.
# Submitted via: audiograbber 1.83.01
#
DISCID=9009d40b
DTITLE=Tore Ljøkjel - Pust av Himmel
DYEAR=2005
DGENRE=sax instrumental
TTITLE0=Å kom, å kom Immanuel
TTITLE1=Kven kan seia ut den glede
TTITLE2=Pust av himmel (Lille Davids sang)
TTITLE3=Dine hender er fulle av blomster
TTITLE4=Deg å få skode
TTITLE5=I lay me down
TTITLE6=Med Jesus vil eg fara
TTITLE7=Du må ikkje gå
TTITLE8=Når vi deler det brød
TTITLE9=I Gud Faders hender
TTITLE10=Den blomstertid nu kommer
EXTD=
EXTT0=
EXTT1=
EXTT2=
EXTT3=
EXTT4=
EXTT5=
EXTT6=
EXTT7=
EXTT8=
EXTT9=
EXTT10=
PLAYORDER=
